<svg xmlns="http://www.w3.org/2000/svg" xmlns:xlink="http://www.w3.org/1999/xlink" version="1.1" width="1000" height="1000" viewBox="0 0 1000 1000" xml:space="preserve">
<desc>Created with Fabric.js 3.5.0</desc>
<defs>
</defs>
<rect x="0" y="0" width="60" height="60" fill="#ffffff"/>
<g transform="matrix(0.4878 0 0 0.4878 75.4542 75.4542)" id="340147">
<g style="" vector-effect="non-scaling-stroke">
		<g transform="matrix(1 0 0 1 -1.6601 -13.3693)">
<path style="stroke: none; stroke-width: 1; stroke-dasharray: none; stroke-linecap: butt; stroke-dashoffset: 0; stroke-linejoin: miter; stroke-miterlimit: 4; is-custom-font: none; font-file-url: none; fill: rgb(33,50,91); fill-rule: nonzero; opacity: 1;" transform=" translate(-59.8399, -48.1307)" d="M 25.79 58.4149 C 25.7901 57.7357 25.9244 57.0633 26.1851 56.4361 C 26.4458 55.809 26.8278 55.2396 27.3092 54.7605 C 27.7907 54.2814 28.3619 53.9021 28.9903 53.6444 C 29.6187 53.3867 30.2918 53.2557 30.971 53.2589 L 39.561 53.2869 C 40.9305 53.2869 42.244 53.831 43.2124 54.7994 C 44.1809 55.7678 44.725 57.0813 44.725 58.4509 V 90.9309 C 45.692 90.6439 46.934 90.3379 48.293 90.0179 C 49.237 89.7962 50.0783 89.262 50.6805 88.5019 C 51.2826 87.7418 51.6102 86.8006 51.61 85.8309 V 45.5409 C 51.61 44.1712 52.154 42.8576 53.1224 41.889 C 54.0908 40.9204 55.4043 40.3762 56.774 40.3759 H 65.381 C 66.7506 40.3762 68.0641 40.9204 69.0325 41.889 C 70.0009 42.8576 70.545 44.1712 70.545 45.5409 V 82.9339 C 70.545 82.9339 72.7 82.0619 74.799 81.1759 C 75.5787 80.8462 76.2441 80.2941 76.7122 79.5886 C 77.1803 78.8832 77.4302 78.0555 77.431 77.2089 V 32.6309 C 77.431 31.2615 77.9749 29.9481 78.9431 28.9797 C 79.9113 28.0113 81.2245 27.4672 82.5939 27.4669 H 91.201 C 92.5706 27.4669 93.884 28.0109 94.8525 28.9794 C 95.8209 29.9478 96.365 31.2613 96.365 32.6309 V 69.3399 C 103.827 63.9319 111.389 57.4279 117.39 49.6069 C 118.261 48.4717 118.837 47.1386 119.067 45.7267 C 119.297 44.3148 119.174 42.8678 118.709 41.5149 C 115.931 33.5227 111.516 26.1983 105.745 20.0105 C 99.974 13.8228 92.9749 8.90785 85.1955 5.58032 C 77.4161 2.2528 69.0277 0.585938 60.5671 0.686416 C 52.1065 0.786893 43.7601 2.6525 36.062 6.16383 C 28.3638 9.67517 21.4834 14.7549 15.8611 21.078 C 10.2388 27.401 5.99842 34.8282 3.41131 42.8842 C 0.824207 50.9401 -0.0526487 59.4474 0.836851 67.8617 C 1.72635 76.276 4.36263 84.4119 8.57696 91.7489 C 9.31111 93.0145 10.3912 94.0444 11.6903 94.7175 C 12.9894 95.3906 14.4536 95.679 15.911 95.5489 C 17.539 95.4059 19.566 95.2029 21.976 94.9199 C 23.0251 94.8008 23.9937 94.2999 24.6972 93.5126 C 25.4008 92.7253 25.7901 91.7067 25.791 90.6509 L 25.79 58.4149 Z" stroke-linecap="round"/>
</g>
		<g transform="matrix(1 0 0 1 12.3936 28.1519)">
<path style="stroke: none; stroke-width: 1; stroke-dasharray: none; stroke-linecap: butt; stroke-dashoffset: 0; stroke-linejoin: miter; stroke-miterlimit: 4; is-custom-font: none; font-file-url: none; fill: rgb(151,150,149); fill-rule: nonzero; opacity: 1;" transform=" translate(-73.8936, -89.6519)" d="M 25.6021 110.51 C 34.6744 117.11 45.3959 121.072 56.5802 121.957 C 67.7646 122.841 78.9757 120.615 88.9731 115.523 C 98.9705 110.431 107.364 102.673 113.226 93.1068 C 119.087 83.5405 122.188 72.539 122.185 61.3197 C 122.185 59.9197 122.12 58.5347 122.027 57.1577 C 99.808 90.2957 58.7831 105.788 25.604 110.505" stroke-linecap="round"/>
</g>
</g>
</g>
</svg>
